<svg xmlns="http://www.w3.org/2000/svg" viewBox="0 0 23.21 24"><title>filter</title><g id="Layer_2" data-name="Layer 2"><g id="Layer_1-2" data-name="Layer 1"><path d="M21.49,0H1.72A1.72,1.72,0,0,0,0,1.73v.61a2,2,0,0,0,.72,1.5L8.41,10V22.37A1.59,1.59,0,0,0,10,24a1.65,1.65,0,0,0,1.13-.46l3-2.87a2,2,0,0,0,.62-1.43V10.07l7.67-5.9a2,2,0,0,0,.75-1.52V1.73A1.73,1.73,0,0,0,21.49,0Zm.19,2.64a.43.43,0,0,1-.15.31L13.42,9.2a.44.44,0,0,0-.15.31v9.74a.51.51,0,0,1-.14.32l-3,2.87-.08,0s-.06,0-.06-.1V9.51A.44.44,0,0,0,9.8,9.2L1.68,2.65a.46.46,0,0,1-.15-.31V1.74a.19.19,0,0,1,.19-.19H21.49a.19.19,0,0,1,.19.19v.91Z"/></g></g></svg>